<svg width="36" height="35" viewBox="0 0 36 35" fill="none" xmlns="http://www.w3.org/2000/svg">
<g filter="url(#filter0_d_4_565)">
<path d="M24.1968 16.5318C25.323 15.5962 26.0391 14.1911 26.0391 12.6199C26.0391 11.0488 25.323 9.64365 24.1968 8.70811C24.3258 8.64611 24.45 8.57882 24.5684 8.5059C25.3154 8.04515 26.1971 7.77905 27.1414 7.77905C29.8366 7.77905 32.0214 9.94643 32.0214 12.6199C32.0214 15.2935 29.8366 17.4608 27.1414 17.4608C26.1971 17.4608 25.3154 17.1947 24.5684 16.734C24.45 16.6611 24.3258 16.5938 24.1968 16.5318Z" fill="#E65F2B"/>
</g>
<g filter="url(#filter1_d_4_565)">
<path d="M22.8412 13.3833C23.3449 12.0145 23.2569 10.4424 22.465 9.08177C21.673 7.72114 20.3445 6.85943 18.8977 6.60782C18.9783 6.49014 19.0519 6.37025 19.1175 6.2484C19.5322 5.47889 20.1617 4.81112 20.9795 4.34272C23.3136 3.00595 26.2982 3.79925 27.6457 6.11461C28.9933 8.42997 28.1936 11.3906 25.8595 12.7274C25.0417 13.1958 24.144 13.4026 23.2648 13.3742C23.1256 13.3696 22.9841 13.373 22.8412 13.3833Z" fill="#E65F2B"/>
</g>
<g filter="url(#filter2_d_4_565)">
<path d="M20.0799 11.3273C19.8263 9.89205 18.9576 8.57419 17.586 7.78863C16.2144 7.00307 14.6296 6.91575 13.2498 7.41547C13.2602 7.27361 13.2636 7.13326 13.259 6.99518C13.2303 6.12305 13.4388 5.23254 13.911 4.42125C15.2586 2.10589 18.2431 1.31259 20.5772 2.64936C22.9112 3.98614 23.711 6.94678 22.3633 9.26216C21.8912 10.0734 21.218 10.6979 20.4423 11.1093C20.3195 11.1744 20.1986 11.2474 20.0799 11.3273Z" fill="#E65F2B"/>
</g>
<g filter="url(#filter3_d_4_565)">
<path d="M16.6508 10.917C15.7077 9.79982 14.2912 9.0894 12.7074 9.0894C11.1235 9.0894 9.70702 9.79982 8.76394 10.917C8.70147 10.789 8.63363 10.6657 8.56009 10.5484C8.09564 9.80734 7.82739 8.93273 7.82739 7.99592C7.82739 5.32237 10.0122 3.15503 12.7074 3.15503C15.4025 3.15503 17.5873 5.32237 17.5873 7.99592C17.5873 8.93273 17.3191 9.80734 16.8547 10.5484C16.7811 10.6657 16.7132 10.789 16.6508 10.917Z" fill="#E65F2B"/>
</g>
<g filter="url(#filter4_d_4_565)">
<path d="M13.477 12.2615C12.0972 11.7617 10.5123 11.8491 9.14067 12.6346C7.76905 13.4201 6.90038 14.738 6.64675 16.1732C6.52811 16.0933 6.40725 16.0203 6.28442 15.9552C5.50869 15.5438 4.83553 14.9194 4.36335 14.1081C3.01578 11.7927 3.81548 8.83211 6.14954 7.49532C8.4836 6.15853 11.4681 6.95184 12.8157 9.26722C13.2879 10.0785 13.4965 10.969 13.4677 11.8411C13.4632 11.9792 13.4665 12.1195 13.477 12.2615Z" fill="#E65F2B"/>
</g>
<g filter="url(#filter5_d_4_565)">
<path d="M11.4027 15.0012C9.9558 15.2528 8.62731 16.1145 7.83541 17.4751C7.0435 18.8357 6.95547 20.4079 7.45923 21.7767C7.31622 21.7663 7.17471 21.763 7.0355 21.7674C6.15634 21.796 5.25864 21.5891 4.4408 21.1207C2.10675 19.7839 1.30704 16.8233 2.65461 14.5079C4.00217 12.1926 6.98672 11.3992 9.32077 12.7361C10.1386 13.2045 10.7681 13.8722 11.1828 14.6417C11.2484 14.7635 11.3221 14.8834 11.4027 15.0012Z" fill="#E65F2B"/>
</g>
<g filter="url(#filter6_d_4_565)">
<path d="M10.9872 18.4018C9.86102 19.3373 9.14483 20.7425 9.14483 22.3135C9.14483 23.8847 9.86102 25.2899 10.9872 26.2254C10.8581 26.2873 10.7339 26.3547 10.6156 26.4276C9.86863 26.8883 8.98693 27.1544 8.04257 27.1544C5.34744 27.1544 3.1626 24.9871 3.1626 22.3135C3.1626 19.64 5.34744 17.4727 8.04257 17.4727C8.98693 17.4727 9.86863 17.7388 10.6156 18.1995C10.7339 18.2725 10.8581 18.3397 10.9872 18.4018Z" fill="#E65F2B"/>
</g>
<g filter="url(#filter7_d_4_565)">
<path d="M12.3425 21.5515C11.8387 22.9203 11.9267 24.4924 12.7187 25.8531C13.5106 27.2138 14.8391 28.0754 16.2859 28.327C16.2054 28.4447 16.1318 28.5646 16.0661 28.6865C15.6514 29.456 15.0219 30.1237 14.2041 30.5921C11.87 31.9289 8.88548 31.1356 7.53791 28.8203C6.19034 26.5049 6.99005 23.5443 9.3241 22.2074C10.1419 21.7391 11.0397 21.5322 11.9188 21.5607C12.058 21.5652 12.1995 21.5619 12.3425 21.5515Z" fill="#E65F2B"/>
</g>
<g filter="url(#filter8_d_4_565)">
<path d="M15.1062 23.6082C15.3598 25.0434 16.2285 26.3613 17.6001 27.1467C18.9717 27.9323 20.5566 28.0197 21.9365 27.5199C21.926 27.6618 21.9227 27.8021 21.9272 27.9403C21.9559 28.8124 21.7474 29.7029 21.2752 30.5142C19.9276 32.8296 16.9431 33.6229 14.609 32.286C12.2749 30.9493 11.4752 27.9887 12.8229 25.6733C13.295 24.862 13.9682 24.2376 14.7439 23.8262C14.8667 23.7611 14.9876 23.688 15.1062 23.6082Z" fill="#E65F2B"/>
</g>
<g filter="url(#filter9_d_4_565)">
<path d="M18.5342 24.0208C19.4773 25.1379 20.8938 25.8483 22.4776 25.8483C24.0615 25.8483 25.478 25.1379 26.4211 24.0208C26.4835 24.1488 26.5513 24.272 26.6249 24.3893C27.0894 25.1303 27.3576 26.005 27.3576 26.9418C27.3576 29.6154 25.1728 31.7827 22.4776 31.7827C19.7825 31.7827 17.5977 29.6154 17.5977 26.9418C17.5977 26.005 17.8659 25.1303 18.3303 24.3893C18.4039 24.272 18.4717 24.1488 18.5342 24.0208Z" fill="#E65F2B"/>
</g>
<g filter="url(#filter10_d_4_565)">
<path d="M21.7092 22.6759C23.089 23.1757 24.6739 23.0883 26.0455 22.3028C27.4171 21.5173 28.2858 20.1994 28.5394 18.7642C28.658 18.844 28.7789 18.9171 28.9017 18.9822C29.6775 19.3936 30.3506 20.018 30.8228 20.8293C32.1704 23.1447 31.3707 26.1053 29.0367 27.4421C26.7026 28.7789 23.7181 27.9856 22.3705 25.6702C21.8983 24.8589 21.6897 23.9684 21.7184 23.0963C21.723 22.9582 21.7197 22.8179 21.7092 22.6759Z" fill="#E65F2B"/>
</g>
<g filter="url(#filter11_d_4_565)">
<path d="M27.3511 17.4567C27.3502 17.4584 27.3492 17.4601 27.3482 17.4618C26.5563 18.8224 25.2278 19.6841 23.781 19.9357C23.8615 20.0535 23.9352 20.1734 24.0008 20.2951C24.4155 21.0647 25.045 21.7324 25.8628 22.2008C28.1969 23.5377 31.1814 22.7443 32.529 20.429C33.6843 18.4439 33.2613 15.9847 31.6464 14.481C30.9369 16.17 29.2905 17.3747 27.3511 17.4567Z" fill="#E65F2B"/>
</g>
<defs>
<filter id="filter0_d_4_565" x="22.1968" y="5.77905" width="11.8247" height="13.6816" filterUnits="userSpaceOnUse" color-interpolation-filters="sRGB">
<feFlood flood-opacity="0" result="BackgroundImageFix"/>
<feColorMatrix in="SourceAlpha" type="matrix" values="0 0 0 0 0 0 0 0 0 0 0 0 0 0 0 0 0 0 127 0" result="hardAlpha"/>
<feOffset/>
<feGaussianBlur stdDeviation="1"/>
<feComposite in2="hardAlpha" operator="out"/>
<feColorMatrix type="matrix" values="0 0 0 0 1 0 0 0 0 1 0 0 0 0 1 0 0 0 0.25 0"/>
<feBlend mode="normal" in2="BackgroundImageFix" result="effect1_dropShadow_4_565"/>
<feBlend mode="normal" in="SourceGraphic" in2="effect1_dropShadow_4_565" result="shape"/>
</filter>
<filter id="filter1_d_4_565" x="16.8977" y="1.69336" width="13.4026" height="13.6899" filterUnits="userSpaceOnUse" color-interpolation-filters="sRGB">
<feFlood flood-opacity="0" result="BackgroundImageFix"/>
<feColorMatrix in="SourceAlpha" type="matrix" values="0 0 0 0 0 0 0 0 0 0 0 0 0 0 0 0 0 0 127 0" result="hardAlpha"/>
<feOffset/>
<feGaussianBlur stdDeviation="1"/>
<feComposite in2="hardAlpha" operator="out"/>
<feColorMatrix type="matrix" values="0 0 0 0 1 0 0 0 0 1 0 0 0 0 1 0 0 0 0.25 0"/>
<feBlend mode="normal" in2="BackgroundImageFix" result="effect1_dropShadow_4_565"/>
<feBlend mode="normal" in="SourceGraphic" in2="effect1_dropShadow_4_565" result="shape"/>
</filter>
<filter id="filter2_d_4_565" x="11.2498" y="0" width="13.7683" height="13.3274" filterUnits="userSpaceOnUse" color-interpolation-filters="sRGB">
<feFlood flood-opacity="0" result="BackgroundImageFix"/>
<feColorMatrix in="SourceAlpha" type="matrix" values="0 0 0 0 0 0 0 0 0 0 0 0 0 0 0 0 0 0 127 0" result="hardAlpha"/>
<feOffset/>
<feGaussianBlur stdDeviation="1"/>
<feComposite in2="hardAlpha" operator="out"/>
<feColorMatrix type="matrix" values="0 0 0 0 1 0 0 0 0 1 0 0 0 0 1 0 0 0 0.25 0"/>
<feBlend mode="normal" in2="BackgroundImageFix" result="effect1_dropShadow_4_565"/>
<feBlend mode="normal" in="SourceGraphic" in2="effect1_dropShadow_4_565" result="shape"/>
</filter>
<filter id="filter3_d_4_565" x="5.82739" y="1.15503" width="13.76" height="11.762" filterUnits="userSpaceOnUse" color-interpolation-filters="sRGB">
<feFlood flood-opacity="0" result="BackgroundImageFix"/>
<feColorMatrix in="SourceAlpha" type="matrix" values="0 0 0 0 0 0 0 0 0 0 0 0 0 0 0 0 0 0 127 0" result="hardAlpha"/>
<feOffset/>
<feGaussianBlur stdDeviation="1"/>
<feComposite in2="hardAlpha" operator="out"/>
<feColorMatrix type="matrix" values="0 0 0 0 1 0 0 0 0 1 0 0 0 0 1 0 0 0 0.25 0"/>
<feBlend mode="normal" in2="BackgroundImageFix" result="effect1_dropShadow_4_565"/>
<feBlend mode="normal" in="SourceGraphic" in2="effect1_dropShadow_4_565" result="shape"/>
</filter>
<filter id="filter4_d_4_565" x="1.70874" y="4.84595" width="13.7683" height="13.3274" filterUnits="userSpaceOnUse" color-interpolation-filters="sRGB">
<feFlood flood-opacity="0" result="BackgroundImageFix"/>
<feColorMatrix in="SourceAlpha" type="matrix" values="0 0 0 0 0 0 0 0 0 0 0 0 0 0 0 0 0 0 127 0" result="hardAlpha"/>
<feOffset/>
<feGaussianBlur stdDeviation="1"/>
<feComposite in2="hardAlpha" operator="out"/>
<feColorMatrix type="matrix" values="0 0 0 0 1 0 0 0 0 1 0 0 0 0 1 0 0 0 0.25 0"/>
<feBlend mode="normal" in2="BackgroundImageFix" result="effect1_dropShadow_4_565"/>
<feBlend mode="normal" in="SourceGraphic" in2="effect1_dropShadow_4_565" result="shape"/>
</filter>
<filter id="filter5_d_4_565" x="0" y="10.0867" width="13.4026" height="13.6899" filterUnits="userSpaceOnUse" color-interpolation-filters="sRGB">
<feFlood flood-opacity="0" result="BackgroundImageFix"/>
<feColorMatrix in="SourceAlpha" type="matrix" values="0 0 0 0 0 0 0 0 0 0 0 0 0 0 0 0 0 0 127 0" result="hardAlpha"/>
<feOffset/>
<feGaussianBlur stdDeviation="1"/>
<feComposite in2="hardAlpha" operator="out"/>
<feColorMatrix type="matrix" values="0 0 0 0 1 0 0 0 0 1 0 0 0 0 1 0 0 0 0.25 0"/>
<feBlend mode="normal" in2="BackgroundImageFix" result="effect1_dropShadow_4_565"/>
<feBlend mode="normal" in="SourceGraphic" in2="effect1_dropShadow_4_565" result="shape"/>
</filter>
<filter id="filter6_d_4_565" x="1.1626" y="15.4727" width="11.8247" height="13.6819" filterUnits="userSpaceOnUse" color-interpolation-filters="sRGB">
<feFlood flood-opacity="0" result="BackgroundImageFix"/>
<feColorMatrix in="SourceAlpha" type="matrix" values="0 0 0 0 0 0 0 0 0 0 0 0 0 0 0 0 0 0 127 0" result="hardAlpha"/>
<feOffset/>
<feGaussianBlur stdDeviation="1"/>
<feComposite in2="hardAlpha" operator="out"/>
<feColorMatrix type="matrix" values="0 0 0 0 1 0 0 0 0 1 0 0 0 0 1 0 0 0 0.25 0"/>
<feBlend mode="normal" in2="BackgroundImageFix" result="effect1_dropShadow_4_565"/>
<feBlend mode="normal" in="SourceGraphic" in2="effect1_dropShadow_4_565" result="shape"/>
</filter>
<filter id="filter7_d_4_565" x="4.8833" y="19.5515" width="13.4026" height="13.6899" filterUnits="userSpaceOnUse" color-interpolation-filters="sRGB">
<feFlood flood-opacity="0" result="BackgroundImageFix"/>
<feColorMatrix in="SourceAlpha" type="matrix" values="0 0 0 0 0 0 0 0 0 0 0 0 0 0 0 0 0 0 127 0" result="hardAlpha"/>
<feOffset/>
<feGaussianBlur stdDeviation="1"/>
<feComposite in2="hardAlpha" operator="out"/>
<feColorMatrix type="matrix" values="0 0 0 0 1 0 0 0 0 1 0 0 0 0 1 0 0 0 0.25 0"/>
<feBlend mode="normal" in2="BackgroundImageFix" result="effect1_dropShadow_4_565"/>
<feBlend mode="normal" in="SourceGraphic" in2="effect1_dropShadow_4_565" result="shape"/>
</filter>
<filter id="filter8_d_4_565" x="10.1682" y="21.6082" width="13.7683" height="13.3274" filterUnits="userSpaceOnUse" color-interpolation-filters="sRGB">
<feFlood flood-opacity="0" result="BackgroundImageFix"/>
<feColorMatrix in="SourceAlpha" type="matrix" values="0 0 0 0 0 0 0 0 0 0 0 0 0 0 0 0 0 0 127 0" result="hardAlpha"/>
<feOffset/>
<feGaussianBlur stdDeviation="1"/>
<feComposite in2="hardAlpha" operator="out"/>
<feColorMatrix type="matrix" values="0 0 0 0 1 0 0 0 0 1 0 0 0 0 1 0 0 0 0.25 0"/>
<feBlend mode="normal" in2="BackgroundImageFix" result="effect1_dropShadow_4_565"/>
<feBlend mode="normal" in="SourceGraphic" in2="effect1_dropShadow_4_565" result="shape"/>
</filter>
<filter id="filter9_d_4_565" x="15.5977" y="22.0208" width="13.76" height="11.762" filterUnits="userSpaceOnUse" color-interpolation-filters="sRGB">
<feFlood flood-opacity="0" result="BackgroundImageFix"/>
<feColorMatrix in="SourceAlpha" type="matrix" values="0 0 0 0 0 0 0 0 0 0 0 0 0 0 0 0 0 0 127 0" result="hardAlpha"/>
<feOffset/>
<feGaussianBlur stdDeviation="1"/>
<feComposite in2="hardAlpha" operator="out"/>
<feColorMatrix type="matrix" values="0 0 0 0 1 0 0 0 0 1 0 0 0 0 1 0 0 0 0.25 0"/>
<feBlend mode="normal" in2="BackgroundImageFix" result="effect1_dropShadow_4_565"/>
<feBlend mode="normal" in="SourceGraphic" in2="effect1_dropShadow_4_565" result="shape"/>
</filter>
<filter id="filter10_d_4_565" x="19.7092" y="16.7642" width="13.7683" height="13.3274" filterUnits="userSpaceOnUse" color-interpolation-filters="sRGB">
<feFlood flood-opacity="0" result="BackgroundImageFix"/>
<feColorMatrix in="SourceAlpha" type="matrix" values="0 0 0 0 0 0 0 0 0 0 0 0 0 0 0 0 0 0 127 0" result="hardAlpha"/>
<feOffset/>
<feGaussianBlur stdDeviation="1"/>
<feComposite in2="hardAlpha" operator="out"/>
<feColorMatrix type="matrix" values="0 0 0 0 1 0 0 0 0 1 0 0 0 0 1 0 0 0 0.25 0"/>
<feBlend mode="normal" in2="BackgroundImageFix" result="effect1_dropShadow_4_565"/>
<feBlend mode="normal" in="SourceGraphic" in2="effect1_dropShadow_4_565" result="shape"/>
</filter>
<filter id="filter11_d_4_565" x="21.781" y="12.481" width="13.4026" height="12.3694" filterUnits="userSpaceOnUse" color-interpolation-filters="sRGB">
<feFlood flood-opacity="0" result="BackgroundImageFix"/>
<feColorMatrix in="SourceAlpha" type="matrix" values="0 0 0 0 0 0 0 0 0 0 0 0 0 0 0 0 0 0 127 0" result="hardAlpha"/>
<feOffset/>
<feGaussianBlur stdDeviation="1"/>
<feComposite in2="hardAlpha" operator="out"/>
<feColorMatrix type="matrix" values="0 0 0 0 1 0 0 0 0 1 0 0 0 0 1 0 0 0 0.25 0"/>
<feBlend mode="normal" in2="BackgroundImageFix" result="effect1_dropShadow_4_565"/>
<feBlend mode="normal" in="SourceGraphic" in2="effect1_dropShadow_4_565" result="shape"/>
</filter>
</defs>
</svg>
