<svg width="271" height="201" viewBox="0 0 271 201" fill="none" xmlns="http://www.w3.org/2000/svg">
<path d="M270.5 176H0.5V176.135H270.5V176Z" fill="#EBEBEB"/>
<path d="M174 184H156V184.135H174V184Z" fill="#EBEBEB"/>
<path d="M225 182H220V182.135H225V182Z" fill="#EBEBEB"/>
<path d="M214 180H177V180.135H214V180Z" fill="#EBEBEB"/>
<path d="M121 183H105V183.135H121V183Z" fill="#EBEBEB"/>
<path d="M100 183H90V183.135H100V183Z" fill="#EBEBEB"/>
<path d="M53 181H28V181.135H53V181Z" fill="#EBEBEB"/>
<path d="M127.929 152H24.066C23.2524 151.999 22.4725 151.675 21.8977 151.099C21.3229 150.524 21 149.744 21 148.931V3.04215C21.0071 2.23379 21.3331 1.46087 21.9071 0.891263C22.4812 0.321661 23.257 0.00138476 24.066 0H127.929C128.743 0 129.524 0.323343 130.1 0.898896C130.676 1.47445 131 2.25507 131 3.06902V148.931C131 149.745 130.676 150.526 130.1 151.101C129.524 151.677 128.743 152 127.929 152ZM24.066 0.107497C23.288 0.108921 22.5424 0.418734 21.9928 0.968934C21.4432 1.51913 21.1345 2.26476 21.1345 3.04215V148.931C21.1345 149.708 21.4432 150.454 21.9928 151.004C22.5424 151.554 23.288 151.864 24.066 151.866H127.929C128.707 151.864 129.453 151.555 130.004 151.005C130.554 150.454 130.864 149.709 130.866 148.931V3.04215C130.864 2.26427 130.554 1.51865 130.004 0.968606C129.453 0.418559 128.707 0.108918 127.929 0.107497H24.066Z" fill="#EBEBEB"/>
<path d="M243.939 152H140.071C139.257 151.999 138.477 151.675 137.901 151.1C137.325 150.524 137.001 149.744 137 148.931V3.04215C137.008 2.2333 137.336 1.46038 137.911 0.890927C138.486 0.321473 139.262 0.00136966 140.071 0H243.939C244.747 0.00279732 245.522 0.323698 246.095 0.893149C246.668 1.4626 246.993 2.23472 247 3.04215V148.931C247 149.743 246.678 150.522 246.104 151.097C245.531 151.673 244.752 151.997 243.939 152ZM140.071 0.107497C139.293 0.108918 138.547 0.418559 137.996 0.968606C137.446 1.51865 137.136 2.26427 137.134 3.04215V148.931C137.136 149.709 137.446 150.454 137.996 151.005C138.547 151.555 139.293 151.864 140.071 151.866H243.939C244.718 151.864 245.464 151.555 246.015 151.005C246.565 150.454 246.875 149.709 246.876 148.931V3.04215C246.875 2.26427 246.565 1.51865 246.015 0.968606C245.464 0.418559 244.718 0.108918 243.939 0.107497H140.071Z" fill="#EBEBEB"/>
<path d="M237 61.1335C236.999 60.5681 236.763 60.0262 236.345 59.6264C235.926 59.2266 235.359 59.0014 234.768 59H165.232C164.641 59.0014 164.074 59.2266 163.655 59.6264C163.237 60.0262 163.001 60.5681 163 61.1335V68H237V61.1335Z" fill="#E6E6E6"/>
<path d="M220 63.4952C220.001 63.7923 219.914 64.0829 219.749 64.3304C219.585 64.5778 219.351 64.7708 219.076 64.8849C218.802 64.999 218.5 65.0291 218.209 64.9714C217.917 64.9137 217.649 64.7707 217.439 64.5607C217.229 64.3506 217.086 64.0829 217.029 63.7915C216.971 63.5 217.001 63.198 217.115 62.9238C217.229 62.6495 217.422 62.4153 217.67 62.2508C217.917 62.0863 218.208 61.9991 218.505 62C218.901 62.0013 219.281 62.1592 219.561 62.4393C219.841 62.7195 219.999 63.099 220 63.4952Z" fill="white"/>
<path d="M226 63.4952C226.001 63.7921 225.914 64.0825 225.75 64.3298C225.585 64.5772 225.351 64.7702 225.077 64.8844C224.803 64.9987 224.502 65.0291 224.21 64.9718C223.919 64.9144 223.651 64.7719 223.441 64.5624C223.231 64.3528 223.087 64.0855 223.029 63.7944C222.971 63.5033 223 63.2015 223.114 62.9271C223.227 62.6527 223.419 62.4182 223.666 62.2531C223.913 62.0881 224.203 62 224.5 62C224.897 62 225.278 62.1574 225.559 62.4376C225.84 62.7179 225.999 63.0982 226 63.4952Z" fill="white"/>
<path d="M230.5 65C231.328 65 232 64.3284 232 63.5C232 62.6716 231.328 62 230.5 62C229.672 62 229 62.6716 229 63.5C229 64.3284 229.672 65 230.5 65Z" fill="white"/>
<path d="M165.232 117H234.768C235.359 116.999 235.926 116.765 236.345 116.35C236.763 115.935 236.999 115.373 237 114.786V69H163V114.786C163.001 115.373 163.237 115.935 163.655 116.35C164.074 116.765 164.641 116.999 165.232 117Z" fill="#F0F0F0"/>
<path d="M243 78.1335C242.999 77.5681 242.763 77.0262 242.345 76.6264C241.926 76.2266 241.359 76.0014 240.768 76H171.232C170.641 76.0014 170.074 76.2266 169.655 76.6264C169.237 77.0262 169.001 77.5681 169 78.1335V85H243V78.1335Z" fill="#F0F0F0"/>
<path d="M226 80.5C226 80.7967 225.912 81.0867 225.747 81.3334C225.582 81.58 225.348 81.7723 225.074 81.8858C224.8 81.9993 224.498 82.0291 224.207 81.9712C223.916 81.9133 223.649 81.7704 223.439 81.5607C223.23 81.3509 223.087 81.0836 223.029 80.7926C222.971 80.5017 223.001 80.2001 223.114 79.926C223.228 79.6519 223.42 79.4176 223.667 79.2528C223.913 79.088 224.203 79 224.5 79C224.898 79 225.279 79.158 225.561 79.4393C225.842 79.7206 226 80.1022 226 80.5Z" fill="#E6E6E6"/>
<path d="M232 80.5C232 80.7969 231.912 81.0871 231.747 81.3339C231.582 81.5806 231.347 81.7729 231.073 81.8863C230.799 81.9997 230.497 82.0291 230.206 81.9708C229.914 81.9126 229.647 81.7692 229.438 81.559C229.228 81.3487 229.086 81.081 229.028 80.7897C228.971 80.4984 229.001 80.1966 229.116 79.9226C229.23 79.6486 229.423 79.4147 229.67 79.2505C229.917 79.0862 230.208 78.9991 230.505 79C230.902 79.0013 231.282 79.1599 231.562 79.441C231.843 79.7222 232 80.103 232 80.5Z" fill="#E6E6E6"/>
<path d="M238 80.5C238 80.7969 237.912 81.0871 237.747 81.3339C237.582 81.5806 237.347 81.7729 237.073 81.8863C236.799 81.9997 236.497 82.0291 236.206 81.9708C235.914 81.9126 235.647 81.7692 235.438 81.559C235.228 81.3487 235.086 81.081 235.028 80.7897C234.971 80.4984 235.001 80.1966 235.116 79.9226C235.23 79.6486 235.423 79.4147 235.67 79.2505C235.917 79.0862 236.208 78.9991 236.505 79C236.902 79.0013 237.282 79.1599 237.562 79.441C237.843 79.7222 238 80.103 238 80.5Z" fill="#E6E6E6"/>
<path d="M171.232 133H240.768C241.36 132.999 241.926 132.765 242.345 132.35C242.763 131.935 242.999 131.373 243 130.786V85H169V130.786C169.001 131.373 169.237 131.935 169.655 132.35C170.074 132.765 170.64 132.999 171.232 133Z" fill="#FAFAFA"/>
<path d="M27 10.1286C27.0028 9.56398 27.226 9.02341 27.6207 8.62469C28.0155 8.22598 28.5499 8.00143 29.1075 8H119.892C120.45 8.00143 120.984 8.22598 121.379 8.62469C121.774 9.02341 121.997 9.56398 122 10.1286V17H27V10.1286Z" fill="#E0E0E0"/>
<path d="M43.5 14C43.2033 14 42.9133 13.912 42.6666 13.7472C42.42 13.5824 42.2277 13.3481 42.1142 13.074C42.0007 12.7999 41.9709 12.4983 42.0288 12.2074C42.0867 11.9164 42.2296 11.6491 42.4393 11.4393C42.6491 11.2296 42.9164 11.0867 43.2074 11.0288C43.4983 10.9709 43.7999 11.0007 44.074 11.1142C44.3481 11.2277 44.5824 11.42 44.7472 11.6666C44.912 11.9133 45 12.2033 45 12.5C45 12.8978 44.842 13.2794 44.5607 13.5607C44.2794 13.842 43.8978 14 43.5 14ZM43.5 11.2383C43.2505 11.2383 43.0065 11.3123 42.799 11.4509C42.5916 11.5896 42.4299 11.7866 42.3344 12.0172C42.2389 12.2477 42.2139 12.5014 42.2626 12.7461C42.3112 12.9909 42.4314 13.2157 42.6079 13.3921C42.7843 13.5686 43.0091 13.6888 43.2539 13.7374C43.4986 13.7861 43.7523 13.7611 43.9828 13.6656C44.2134 13.5701 44.4104 13.4084 44.549 13.201C44.6877 12.9935 44.7617 12.7495 44.7617 12.5C44.7642 12.3327 44.7334 12.1667 44.6711 12.0114C44.6088 11.8562 44.5162 11.7149 44.3988 11.5958C44.2814 11.4766 44.1415 11.382 43.9872 11.3174C43.8329 11.2529 43.6673 11.2196 43.5 11.2196V11.2383Z" fill="white"/>
<path d="M37.4999 14C37.204 14 36.9148 13.9125 36.6685 13.7484C36.4223 13.5844 36.23 13.3513 36.1159 13.0783C36.0019 12.8053 35.9711 12.5046 36.0275 12.2142C36.0839 11.9237 36.2249 11.6564 36.4328 11.4459C36.6407 11.2354 36.9062 11.0911 37.196 11.0311C37.4857 10.9712 37.7867 10.9982 38.0611 11.1089C38.3355 11.2196 38.571 11.4089 38.7381 11.6531C38.9051 11.8973 38.9962 12.1855 38.9999 12.4813C39.0024 12.6799 38.9654 12.8769 38.8911 13.0611C38.8168 13.2452 38.7067 13.4128 38.5672 13.5541C38.4277 13.6953 38.2615 13.8075 38.0783 13.8841C37.895 13.9606 37.6984 14 37.4999 14ZM37.4999 11.2383C37.2503 11.2383 37.0064 11.3123 36.7989 11.4509C36.5914 11.5896 36.4297 11.7866 36.3342 12.0172C36.2387 12.2477 36.2138 12.5014 36.2624 12.7461C36.3111 12.9909 36.4313 13.2157 36.6077 13.3921C36.7842 13.5686 37.009 13.6888 37.2537 13.7374C37.4985 13.7861 37.7522 13.7611 37.9827 13.6656C38.2132 13.5702 38.4103 13.4084 38.5489 13.201C38.6876 12.9935 38.7616 12.7495 38.7616 12.5C38.764 12.3327 38.7332 12.1667 38.6709 12.0114C38.6087 11.8562 38.5161 11.7149 38.3987 11.5958C38.2813 11.4766 38.1414 11.382 37.9871 11.3174C37.8328 11.2529 37.6672 11.2196 37.4999 11.2196V11.2383Z" fill="white"/>
<path d="M32.5 14C32.2033 14 31.9133 13.912 31.6666 13.7472C31.42 13.5824 31.2277 13.3481 31.1142 13.074C31.0006 12.7999 30.9709 12.4983 31.0288 12.2074C31.0867 11.9164 31.2296 11.6491 31.4393 11.4393C31.6491 11.2296 31.9164 11.0867 32.2074 11.0288C32.4983 10.9709 32.7999 11.0007 33.074 11.1142C33.3481 11.2277 33.5824 11.42 33.7472 11.6666C33.912 11.9133 34 12.2033 34 12.5C34 12.8978 33.842 13.2794 33.5607 13.5607C33.2794 13.842 32.8978 14 32.5 14ZM32.5 11.2383C32.2505 11.2383 32.0065 11.3123 31.799 11.4509C31.5916 11.5896 31.4299 11.7866 31.3344 12.0172C31.2389 12.2477 31.2139 12.5014 31.2626 12.7461C31.3112 12.9909 31.4314 13.2157 31.6079 13.3921C31.7843 13.5686 32.0091 13.6888 32.2539 13.7374C32.4986 13.7861 32.7523 13.7611 32.9828 13.6656C33.2134 13.5701 33.4104 13.4084 33.5491 13.201C33.6877 12.9935 33.7617 12.7495 33.7617 12.5C33.7642 12.3327 33.7334 12.1667 33.6711 12.0114C33.6088 11.8562 33.5162 11.7149 33.3988 11.5958C33.2814 11.4766 33.1415 11.382 32.9872 11.3174C32.8329 11.2529 32.6673 11.2196 32.5 11.2196V11.2383Z" fill="white"/>
<path d="M29.1075 73H119.892C120.451 72.9986 120.986 72.7775 121.381 72.3851C121.776 71.9927 121.999 71.4608 122 70.9059V17H27V70.9059C27.0014 71.4608 27.2239 71.9927 27.6188 72.3851C28.0138 72.7775 28.549 72.9986 29.1075 73Z" fill="#EBEBEB"/>
<path d="M50 24.1299C50.0028 23.5649 50.226 23.024 50.6208 22.6251C51.0157 22.2261 51.5502 22.0014 52.1079 22H142.892C143.45 22.0014 143.984 22.2261 144.379 22.6251C144.774 23.024 144.997 23.5649 145 24.1299V31H50V24.1299Z" fill="#FAFAFA"/>
<path d="M66.5 28C66.2033 28 65.9133 27.912 65.6666 27.7472C65.42 27.5824 65.2277 27.3481 65.1142 27.074C65.0007 26.7999 64.9709 26.4983 65.0288 26.2074C65.0867 25.9164 65.2296 25.6491 65.4393 25.4393C65.6491 25.2296 65.9164 25.0867 66.2074 25.0288C66.4983 24.9709 66.7999 25.0007 67.074 25.1142C67.3481 25.2277 67.5824 25.42 67.7472 25.6666C67.912 25.9133 68 26.2033 68 26.5C68 26.8978 67.842 27.2794 67.5607 27.5607C67.2794 27.842 66.8978 28 66.5 28ZM66.5 25.2383C66.2505 25.2383 66.0065 25.3123 65.799 25.4509C65.5916 25.5896 65.4299 25.7866 65.3344 26.0172C65.2389 26.2477 65.2139 26.5014 65.2626 26.7461C65.3112 26.9909 65.4314 27.2157 65.6079 27.3921C65.7843 27.5686 66.0091 27.6888 66.2539 27.7374C66.4986 27.7861 66.7523 27.7611 66.9828 27.6656C67.2134 27.5701 67.4104 27.4084 67.549 27.201C67.6877 26.9935 67.7617 26.7495 67.7617 26.5C67.7617 26.1654 67.6288 25.8445 67.3921 25.6079C67.1555 25.3712 66.8346 25.2383 66.5 25.2383Z" fill="#E6E6E6"/>
<path d="M60.5 28C60.2033 28 59.9133 27.912 59.6666 27.7472C59.42 27.5824 59.2277 27.3481 59.1142 27.074C59.0007 26.7999 58.9709 26.4983 59.0288 26.2074C59.0867 25.9164 59.2296 25.6491 59.4393 25.4393C59.6491 25.2296 59.9164 25.0867 60.2074 25.0288C60.4983 24.9709 60.7999 25.0007 61.074 25.1142C61.3481 25.2277 61.5824 25.42 61.7472 25.6666C61.912 25.9133 62 26.2033 62 26.5C62 26.8978 61.842 27.2794 61.5607 27.5607C61.2794 27.842 60.8978 28 60.5 28ZM60.5 25.2383C60.2505 25.2383 60.0065 25.3123 59.799 25.4509C59.5916 25.5896 59.4299 25.7866 59.3344 26.0172C59.2389 26.2477 59.2139 26.5014 59.2626 26.7461C59.3112 26.9909 59.4314 27.2157 59.6079 27.3921C59.7843 27.5686 60.0091 27.6888 60.2539 27.7374C60.4986 27.7861 60.7523 27.7611 60.9828 27.6656C61.2134 27.5701 61.4104 27.4084 61.549 27.201C61.6877 26.9935 61.7617 26.7495 61.7617 26.5C61.7617 26.1654 61.6288 25.8445 61.3921 25.6079C61.1555 25.3712 60.8346 25.2383 60.5 25.2383Z" fill="#E6E6E6"/>
<path d="M55.5 28C55.2033 28 54.9133 27.912 54.6666 27.7472C54.42 27.5824 54.2277 27.3481 54.1142 27.074C54.0007 26.7999 53.9709 26.4983 54.0288 26.2074C54.0867 25.9164 54.2296 25.6491 54.4393 25.4393C54.6491 25.2296 54.9164 25.0867 55.2074 25.0288C55.4983 24.9709 55.7999 25.0007 56.074 25.1142C56.3481 25.2277 56.5824 25.42 56.7472 25.6666C56.912 25.9133 57 26.2033 57 26.5C57 26.8978 56.842 27.2794 56.5607 27.5607C56.2794 27.842 55.8978 28 55.5 28ZM55.5 25.2383C55.2505 25.2383 55.0065 25.3123 54.799 25.4509C54.5916 25.5896 54.4299 25.7866 54.3344 26.0172C54.2389 26.2477 54.2139 26.5014 54.2626 26.7461C54.3112 26.9909 54.4314 27.2157 54.6079 27.3921C54.7843 27.5686 55.0091 27.6888 55.2539 27.7374C55.4986 27.7861 55.7523 27.7611 55.9828 27.6656C56.2134 27.5701 56.4104 27.4084 56.549 27.201C56.6877 26.9935 56.7617 26.7495 56.7617 26.5C56.7617 26.1654 56.6288 25.8445 56.3921 25.6079C56.1555 25.3712 55.8346 25.2383 55.5 25.2383Z" fill="#E6E6E6"/>
<path d="M52.1079 98H142.892C143.451 97.9986 143.986 97.7763 144.381 97.3817C144.776 96.9872 144.999 96.4525 145 95.8945V31H50V95.8945C50.0014 96.4525 50.224 96.9872 50.619 97.3817C51.0139 97.7763 51.5493 97.9986 52.1079 98Z" fill="#F5F5F5"/>
<path d="M188.308 36H156.692C156.31 36 156 36.3299 156 36.7368V42.2632C156 42.6701 156.31 43 156.692 43H188.308C188.69 43 189 42.6701 189 42.2632V36.7368C189 36.3299 188.69 36 188.308 36Z" fill="#E6E6E6"/>
<path d="M212.302 24L156.698 24.35C156.513 24.35 156.335 24.4238 156.204 24.555C156.074 24.6863 156 24.8644 156 25.05V30.3054C156.003 30.4906 156.078 30.6673 156.21 30.7972C156.341 30.9272 156.519 31 156.704 31L212.307 30.65C212.491 30.6486 212.668 30.5742 212.797 30.4431C212.927 30.312 213 30.1347 213 29.95V24.6946C213 24.603 212.982 24.5122 212.947 24.4276C212.912 24.3429 212.86 24.2661 212.795 24.2016C212.73 24.137 212.653 24.0859 212.569 24.0513C212.484 24.0168 212.393 23.9993 212.302 24Z" fill="#F0F0F0"/>
<path d="M200.299 13H156.701C156.314 13 156 13.3299 156 13.7368V19.2632C156 19.6701 156.314 20 156.701 20H200.299C200.686 20 201 19.6701 201 19.2632V13.7368C201 13.3299 200.686 13 200.299 13Z" fill="#F0F0F0"/>
<path d="M44.654 121H33.346C33.1549 121 33 121.138 33 121.307V124.693C33 124.862 33.1549 125 33.346 125H44.654C44.8451 125 45 124.862 45 124.693V121.307C45 121.138 44.8451 121 44.654 121Z" fill="#E6E6E6"/>
<path d="M52.7488 114L33.2459 114.249C33.1069 114.249 33 114.475 33 114.747V118.502C33 118.774 33.1122 119 33.2459 119L52.7541 118.745C52.8878 118.745 53 118.519 53 118.247V114.492C52.9947 114.249 52.8824 114 52.7488 114Z" fill="#F0F0F0"/>
<path d="M48.6573 107H33.3427C33.1535 107 33 107.138 33 107.307V110.693C33 110.862 33.1535 111 33.3427 111H48.6573C48.8466 111 49 110.862 49 110.693V107.307C49 107.138 48.8466 107 48.6573 107Z" fill="#F0F0F0"/>
<path d="M52.7488 135L33.2459 135.266C33.1069 135.266 33 135.491 33 135.762V139.503C33 139.775 33.1122 140 33.2459 140L52.7541 139.746C52.8878 139.746 53 139.521 53 139.249V135.508C52.9947 135.225 52.8824 135 52.7488 135Z" fill="#F0F0F0"/>
<path d="M48.6573 128H33.3427C33.1535 128 33 128.138 33 128.307V131.693C33 131.862 33.1535 132 33.3427 132H48.6573C48.8466 132 49 131.862 49 131.693V128.307C49 128.138 48.8466 128 48.6573 128Z" fill="#F0F0F0"/>
<path d="M132.5 201C190.214 201 237 198.314 237 195C237 191.686 190.214 189 132.5 189C74.7862 189 28 191.686 28 195C28 198.314 74.7862 201 132.5 201Z" fill="#F5F5F5"/>
<path d="M234 15H132V116H234V15Z" fill="#E65F2B"/>
<path opacity="0.1" d="M165 20H132V39H165V20Z" fill="black"/>
<path opacity="0.2" d="M165 58H132V77H165V58Z" fill="black"/>
<path opacity="0.1" d="M165 77H132V96H165V77Z" fill="black"/>
<path d="M165 20H232V112.53C232 113.185 231.739 113.813 231.276 114.276C230.812 114.74 230.183 115 229.527 115H167.473C166.817 115 166.188 114.74 165.724 114.276C165.261 113.813 165 113.185 165 112.53V20Z" fill="white"/>
<path opacity="0.3" d="M234 15H132V20H234V15Z" fill="black"/>
<path opacity="0.8" d="M136 18C136.552 18 137 17.5523 137 17C137 16.4477 136.552 16 136 16C135.448 16 135 16.4477 135 17C135 17.5523 135.448 18 136 18Z" fill="#E65F2B"/>
<path opacity="0.8" d="M141 18C141.552 18 142 17.5523 142 17C142 16.4477 141.552 16 141 16C140.448 16 140 16.4477 140 17C140 17.5523 140.448 18 141 18Z" fill="#E65F2B"/>
<path opacity="0.8" d="M146 18C146.552 18 147 17.5523 147 17C147 16.4477 146.552 16 146 16C145.448 16 145 16.4477 145 17C145 17.5523 145.448 18 146 18Z" fill="#E65F2B"/>
<path opacity="0.2" d="M211.466 30H172.534C171.687 30 171 30.6937 171 31.5494V62.4506C171 63.3063 171.687 64 172.534 64H211.466C212.313 64 213 63.3063 213 62.4506V31.5494C213 30.6937 212.313 30 211.466 30Z" fill="#E65F2B"/>
<path opacity="0.2" d="M226.83 27H197.17C196.524 27 196 27.5307 196 28.1853V51.8147C196 52.4693 196.524 53 197.17 53H226.83C227.476 53 228 52.4693 228 51.8147V28.1853C228 27.5307 227.476 27 226.83 27Z" fill="#E65F2B"/>
<path opacity="0.2" d="M209.83 74H180.17C179.524 74 179 74.5307 179 75.1853V98.8147C179 99.4693 179.524 100 180.17 100H209.83C210.476 100 211 99.4693 211 98.8147V75.1853C211 74.5307 210.476 74 209.83 74Z" fill="#E65F2B"/>
<path opacity="0.7" d="M234 15H132V116H234V15Z" fill="white"/>
<path d="M225 24H123V125H225V24Z" fill="#E65F2B"/>
<path opacity="0.1" d="M156 29H123V48H156V29Z" fill="black"/>
<path opacity="0.2" d="M156 68H123V87H156V68Z" fill="black"/>
<path opacity="0.1" d="M156 87H123V106H156V87Z" fill="black"/>
<path d="M156 29H223V121.529C223 122.185 222.739 122.813 222.276 123.276C221.812 123.74 221.183 124 220.527 124H158.478C157.823 124 157.194 123.74 156.73 123.276C156.266 122.813 156.005 122.185 156.005 121.529V29H156Z" fill="white"/>
<path opacity="0.3" d="M225 24H123V29H225V24Z" fill="black"/>
<path opacity="0.8" d="M127 28C127.552 28 128 27.5523 128 27C128 26.4477 127.552 26 127 26C126.448 26 126 26.4477 126 27C126 27.5523 126.448 28 127 28Z" fill="#E65F2B"/>
<path opacity="0.8" d="M132 28C132.552 28 133 27.5523 133 27C133 26.4477 132.552 26 132 26C131.448 26 131 26.4477 131 27C131 27.5523 131.448 28 132 28Z" fill="#E65F2B"/>
<path opacity="0.8" d="M136 28C136.552 28 137 27.5523 137 27C137 26.4477 136.552 26 136 26C135.448 26 135 26.4477 135 27C135 27.5523 135.448 28 136 28Z" fill="#E65F2B"/>
<path opacity="0.2" d="M201.466 39H162.534C161.687 39 161 39.6937 161 40.5494V71.4506C161 72.3063 161.687 73 162.534 73H201.466C202.313 73 203 72.3063 203 71.4506V40.5494C203 39.6937 202.313 39 201.466 39Z" fill="#E65F2B"/>
<path opacity="0.2" d="M217.83 66H188.17C187.524 66 187 66.5307 187 67.1853V90.8147C187 91.4693 187.524 92 188.17 92H217.83C218.476 92 219 91.4693 219 90.8147V67.1853C219 66.5307 218.476 66 217.83 66Z" fill="#E65F2B"/>
<path opacity="0.2" d="M200.83 84H171.17C170.524 84 170 84.5307 170 85.1853V108.815C170 109.469 170.524 110 171.17 110H200.83C201.476 110 202 109.469 202 108.815V85.1853C202 84.5307 201.476 84 200.83 84Z" fill="#E65F2B"/>
<path opacity="0.5" d="M225 24H123V125H225V24Z" fill="white"/>
<path d="M216 34H114V135H216V34Z" fill="#E65F2B"/>
<path opacity="0.1" d="M147 39H114V58H147V39Z" fill="black"/>
<path opacity="0.2" d="M147 77H114V96H147V77Z" fill="black"/>
<path opacity="0.1" d="M147 96H114V115H147V96Z" fill="black"/>
<path d="M147 39H214V131.53C214 132.185 213.739 132.813 213.276 133.276C212.812 133.74 212.183 134 211.527 134H149.473C148.817 134 148.188 133.74 147.724 133.276C147.261 132.813 147 132.185 147 131.53V39Z" fill="white"/>
<path opacity="0.3" d="M216 34H114V39H216V34Z" fill="black"/>
<path opacity="0.8" d="M118 37C118.552 37 119 36.5523 119 36C119 35.4477 118.552 35 118 35C117.448 35 117 35.4477 117 36C117 36.5523 117.448 37 118 37Z" fill="#E65F2B"/>
<path opacity="0.8" d="M123 35.9948C123.001 36.1928 122.943 36.3866 122.834 36.5518C122.725 36.7169 122.569 36.8459 122.386 36.9224C122.204 36.9989 122.002 37.0194 121.808 36.9814C121.614 36.9434 121.435 36.8486 121.295 36.709C121.154 36.5693 121.059 36.3911 121.02 36.197C120.981 36.0029 121 35.8016 121.076 35.6185C121.151 35.4355 121.279 35.279 121.444 35.1689C121.608 35.0588 121.802 35 122 35C122.131 34.9993 122.261 35.0245 122.382 35.0742C122.504 35.1239 122.614 35.1971 122.707 35.2895C122.8 35.382 122.873 35.4918 122.924 35.6129C122.974 35.7339 123 35.8637 123 35.9948Z" fill="#E65F2B"/>
<path opacity="0.8" d="M127 37C127.552 37 128 36.5523 128 36C128 35.4477 127.552 35 127 35C126.448 35 126 35.4477 126 36C126 36.5523 126.448 37 127 37Z" fill="#E65F2B"/>
<path opacity="0.2" d="M168.7 31H110.3C109.03 31 108 32.04 108 33.3229V79.6771C108 80.96 109.03 82 110.3 82H168.7C169.97 82 171 80.96 171 79.6771V33.3229C171 32.04 169.97 31 168.7 31Z" fill="#E65F2B"/>
<path opacity="0.2" d="M200.246 56H155.754C154.785 56 154 56.7959 154 57.7776V93.2224C154 94.2041 154.785 95 155.754 95H200.246C201.215 95 202 94.2041 202 93.2224V57.7776C202 56.7959 201.215 56 200.246 56Z" fill="#E65F2B"/>
<path opacity="0.2" d="M216.246 104H171.754C170.785 104 170 104.796 170 105.778V141.222C170 142.204 170.785 143 171.754 143H216.246C217.215 143 218 142.204 218 141.222V105.778C218 104.796 217.215 104 216.246 104Z" fill="#E65F2B"/>
<path d="M84 60.7381L79.9893 69.0287C78.6634 71.794 77.3652 74.5757 76.2106 77.3301L75.7962 78.359C75.7354 78.5168 75.7189 78.5495 75.6747 78.6856C75.6305 78.8217 75.5973 78.9306 75.5642 79.083C75.4186 79.7334 75.3097 80.3912 75.2383 81.0535C75.0836 82.4743 74.9952 83.9767 74.9399 85.4846C74.8294 88.5058 74.8018 91.6032 74.7632 94.6679L71.7358 95C71.0434 91.9063 70.5416 88.7741 70.2331 85.6207C70.0672 83.9929 69.9897 82.3575 70.0011 80.7215C70.0042 79.8365 70.0669 78.9527 70.1889 78.0759C70.2165 77.8473 70.2718 77.586 70.327 77.3356C70.3823 77.0852 70.4762 76.7531 70.537 76.5463L70.9181 75.3868C71.9512 72.3221 73.1555 69.3988 74.4206 66.5192C75.6857 63.6395 77.0392 60.8143 78.4977 58L84 60.7381Z" fill="#C87411"/>
<path d="M75.5429 93L77 95.71L72.3499 97C72.3499 97 71.462 94.8218 72.515 93.1075L75.5429 93Z" fill="#C87411"/>
<path d="M78 99.6853L74.0106 100L72 97.216L76.3342 96L78 99.6853Z" fill="#C87411"/>
<path d="M97.0228 39.5659C97.106 39.8389 97.3834 40.0366 97.6469 39.9943C97.9104 39.9519 98.0561 39.7071 97.9798 39.4341C97.9035 39.1611 97.6192 38.9634 97.3556 39.0057C97.0921 39.0481 96.9395 39.274 97.0228 39.5659Z" fill="#263238"/>
<path d="M97 40C97.5569 40.8916 98.2299 41.7001 99 42.4027C98.8218 42.602 98.6034 42.7585 98.3602 42.8614C98.1171 42.9642 97.8551 43.0108 97.5926 42.9979L97 40Z" fill="#ED847E"/>
<path d="M95.2276 38C95.2853 37.9989 95.3402 37.9766 95.3812 37.9376C95.55 37.7502 95.7629 37.6041 96.0023 37.5114C96.2417 37.4187 96.5006 37.3821 96.7577 37.4046C96.8117 37.4136 96.8673 37.4017 96.9122 37.3714C96.9571 37.3411 96.9875 37.2949 96.9969 37.243C97.0063 37.1911 96.9939 37.1378 96.9623 37.0947C96.9307 37.0517 96.8826 37.0224 96.8286 37.0134C96.5002 36.9764 96.1675 37.0164 95.8588 37.13C95.5501 37.2436 95.2747 37.4273 95.0563 37.6654C95.0288 37.6935 95.0103 37.7286 95.0032 37.7665C94.9962 37.8044 95.0007 37.8435 95.0164 37.879C95.032 37.9145 95.0581 37.9448 95.0914 37.9663C95.1247 37.9878 95.1638 37.9995 95.204 38H95.2276Z" fill="#263238"/>
<path d="M87.9065 44C88.4833 46.8776 89.0657 52.1558 87 54.0742C87 54.0742 87.8076 57 93.2905 57C99.3337 57 96.1748 54.0796 96.1748 54.0796C92.8784 53.3079 92.9663 50.9287 93.5377 48.6888L87.9065 44Z" fill="#C87411"/>
<path d="M85.5376 55.8058C85.0776 54.8592 84.5646 53.7791 85.6222 53.4453C86.7803 53.0691 93.1418 52.6929 95.3363 53.3907C97.5308 54.0885 96.9227 56 96.9227 56L85.5376 55.8058Z" fill="#263238"/>
<path d="M69.0042 186.963C69.3145 187.047 69.641 186.987 69.9129 186.794C69.9613 186.727 69.9911 186.646 69.9983 186.559C70.0055 186.473 69.9897 186.386 69.953 186.31C69.9301 186.247 69.8959 186.191 69.8526 186.144C69.8093 186.098 69.7579 186.063 69.702 186.042C69.2 185.826 68.0955 186.508 68.0453 186.537C68.0309 186.546 68.019 186.56 68.011 186.576C68.003 186.593 67.9992 186.612 68.0001 186.631C68.0014 186.65 68.0079 186.669 68.0186 186.685C68.0294 186.701 68.0439 186.712 68.0604 186.718C68.3673 186.835 68.6834 186.917 69.0042 186.963ZM69.5414 186.205L69.6468 186.234C69.6796 186.246 69.7098 186.267 69.7349 186.294C69.7601 186.321 69.7798 186.354 69.7924 186.392C69.8577 186.566 69.7924 186.631 69.7924 186.654C69.6117 186.869 68.8636 186.782 68.3265 186.601C68.7011 186.366 69.1161 186.231 69.5414 186.205Z" fill="#E65F2B"/>
<path d="M68.0585 186.995C68.0684 187.002 68.0794 187.002 68.0892 186.995C68.3964 186.786 69.026 185.87 68.9992 185.343C68.995 185.26 68.9735 185.183 68.9384 185.124C68.9034 185.065 68.857 185.027 68.8072 185.019C68.7576 184.997 68.7057 184.994 68.6553 185.01C68.6049 185.025 68.5571 185.059 68.5154 185.108C68.1622 185.489 68.0048 186.817 68.0009 186.874C67.999 186.893 68.0001 186.913 68.0042 186.93C68.0082 186.948 68.015 186.964 68.024 186.976C68.0285 186.983 68.0339 186.989 68.0399 186.992C68.0459 186.995 68.0523 186.997 68.0585 186.995ZM68.6997 185.362H68.7266C68.811 185.407 68.811 185.47 68.811 185.502C68.811 185.813 68.3733 186.468 68.0432 186.735C68.1202 186.218 68.2903 185.753 68.5308 185.4C68.5552 185.373 68.5827 185.353 68.6117 185.343C68.6408 185.334 68.6707 185.333 68.6997 185.343V185.362Z" fill="#E65F2B"/>
<path d="M98.544 190C99.1456 190 99.728 189.927 99.92 189.685C99.972 189.623 100 189.548 100 189.471C100 189.394 99.972 189.32 99.92 189.258C99.8419 189.143 99.7154 189.06 99.568 189.027C98.7872 188.842 97.1424 189.668 97.072 189.702C97.0509 189.709 97.0327 189.721 97.0198 189.737C97.0069 189.753 97 189.772 97 189.792C97 189.812 97.0069 189.831 97.0198 189.847C97.0327 189.863 97.0509 189.875 97.072 189.882C97.5578 189.959 98.0504 189.998 98.544 190ZM99.2864 189.196C99.3586 189.187 99.4318 189.187 99.504 189.196C99.549 189.204 99.5917 189.22 99.6292 189.243C99.6667 189.266 99.6982 189.296 99.7216 189.331C99.7984 189.455 99.7728 189.516 99.7216 189.55C99.504 189.814 98.3136 189.82 97.4432 189.713C98.0158 189.447 98.6418 189.281 99.2864 189.224V189.196Z" fill="#E65F2B"/>
<path d="M97.2003 189.99C97.8296 189.75 99.0881 188.791 98.9951 188.299C98.9951 188.185 98.8736 188.035 98.5303 188.005C98.4028 187.993 98.2738 188.003 98.1509 188.034C98.028 188.065 97.9138 188.116 97.8153 188.185C97.1503 188.647 97.0073 189.834 97.0001 189.882C96.9993 189.9 97.0033 189.918 97.012 189.935C97.0207 189.952 97.0337 189.966 97.0502 189.978C97.0722 189.99 97.0974 189.997 97.1235 189.999C97.1496 190.001 97.176 189.998 97.2003 189.99ZM98.4803 188.191H98.5518C98.7806 188.191 98.7949 188.287 98.7949 188.311C98.8521 188.605 98.0012 189.354 97.3648 189.684C97.4321 189.18 97.6816 188.705 98.0798 188.323C98.1857 188.255 98.312 188.214 98.4445 188.203L98.4803 188.191Z" fill="#E65F2B"/>
<path d="M92 190H95.6386L96 181H92.3614L92 190Z" fill="#C87411"/>
<path d="M64 185.589L67.9891 186L71 177.411L67.0109 177L64 185.589Z" fill="#C87411"/>
<path d="M68.0861 185.44L63.5807 185.002C63.5009 184.994 63.4207 185.011 63.3529 185.05C63.2851 185.088 63.2338 185.146 63.207 185.214L62.0312 188.338C62.0026 188.414 61.9935 188.495 62.0046 188.574C62.0158 188.653 62.0468 188.729 62.0955 188.796C62.1442 188.863 62.2092 188.919 62.2857 188.96C62.3621 189.001 62.448 189.026 62.5367 189.033C64.1136 189.166 64.8884 189.157 66.8719 189.349C68.0916 189.467 70.5916 189.842 72.2784 189.989C73.9652 190.137 74.3608 188.683 73.6905 188.481C70.6685 187.574 69.6081 186.623 68.7125 185.726C68.5492 185.566 68.3266 185.465 68.0861 185.44Z" fill="#263238"/>
<path d="M96.4363 190H92.1292C92.051 190 91.9751 190.023 91.9143 190.067C91.8535 190.111 91.8115 190.172 91.7954 190.24L91.0147 193.368C90.9952 193.443 90.9951 193.521 91.0145 193.597C91.0339 193.672 91.0722 193.743 91.1266 193.803C91.181 193.864 91.25 193.912 91.3285 193.945C91.4071 193.979 91.493 193.996 91.58 193.995C93.1413 193.971 95.3918 193.89 97.3516 193.89C99.6398 193.89 101.616 194 104.302 194C105.917 194 106.375 192.539 105.697 192.405C102.601 191.806 100.076 191.739 97.4054 190.273C97.1174 190.103 96.7817 190.009 96.4363 190Z" fill="#263238"/>
<path d="M101.984 56.423C103.12 56.7707 104.393 57.1506 105.612 57.4929C106.831 57.8353 108.082 58.1296 109.322 58.3917C111.737 58.9484 114.196 59.301 116.672 59.4456C117.262 59.4456 117.847 59.483 118.41 59.4456H118.754C118.825 59.4456 118.945 59.4456 119.044 59.4188C119.262 59.3867 119.514 59.3332 119.776 59.269C120.939 58.9559 122.08 58.5681 123.191 58.1082C125.541 57.1666 127.951 56.0646 130.333 55L132 57.4555C129.929 59.2471 127.702 60.8581 125.344 62.2702C124.099 63.0306 122.788 63.6822 121.426 64.2175C121.037 64.369 120.64 64.4976 120.235 64.6027C120.005 64.6562 119.798 64.7096 119.541 64.7524L119.175 64.8113L118.891 64.8434C118.126 64.9397 117.377 64.9771 116.634 64.9985C113.77 65.0225 110.911 64.7535 108.104 64.1961C106.732 63.9286 105.372 63.6611 104.033 63.2759C102.694 62.8908 101.393 62.5537 100 62.0616L101.984 56.423Z" fill="#C87411"/>
<path d="M80.6711 55.1193C76.8577 55.9509 73 66.6185 73 66.6185L80.854 72C80.854 72 83.0711 67.037 85.2051 62.6936C87.4665 58.1596 84.5732 54.2612 80.6711 55.1193Z" fill="#E65F2B"/>
<path opacity="0.3" d="M80.6711 55.1193C76.8577 55.9509 73 66.6185 73 66.6185L80.854 72C80.854 72 83.0711 67.037 85.2051 62.6936C87.4665 58.1596 84.5732 54.2612 80.6711 55.1193Z" fill="black"/>
<path d="M102.066 55.2152C102.066 55.2152 106.259 59.9185 102.297 89H81.2331C81.0883 85.8077 83.1202 70.139 80 55.0183C82.3298 54.5704 84.6866 54.2736 87.0553 54.1298C90.0371 53.9567 93.0266 53.9567 96.0084 54.1298C98.053 54.3357 100.078 54.6986 102.066 55.2152Z" fill="#E65F2B"/>
<path opacity="0.3" d="M102.066 55.2152C102.066 55.2152 106.259 59.9185 102.297 89H81.2331C81.0883 85.8077 83.1202 70.139 80 55.0183C82.3298 54.5704 84.6866 54.2736 87.0553 54.1298C90.0371 53.9567 93.0266 53.9567 96.0084 54.1298C98.053 54.3357 100.078 54.6986 102.066 55.2152Z" fill="black"/>
<path opacity="0.3" d="M102.116 55.3143C102.116 55.3143 101.657 55.1819 100.91 55C98.6554 55.2481 97.5593 57.9881 98.1648 60.8329C98.6136 62.95 101.526 65.8444 104 68C103.943 57.4975 102.116 55.3143 102.116 55.3143Z" fill="black"/>
<path d="M96.8932 61.5556C98.8333 64.8207 109.44 68 109.44 68L113 58.7307C113 58.7307 106.92 57.1196 102.205 55.5085C96.3737 53.4732 94.7763 57.9682 96.8932 61.5556Z" fill="#E65F2B"/>
<path opacity="0.3" d="M96.8932 61.5556C98.8333 64.8207 109.44 68 109.44 68L113 58.7307C113 58.7307 106.92 57.1196 102.205 55.5085C96.3737 53.4732 94.7763 57.9682 96.8932 61.5556Z" fill="black"/>
<path d="M130 55.2658L130.604 51L133.959 52.0818C133.959 52.0818 134.454 55.8792 132.009 57L130 55.2658Z" fill="#C87411"/>
<path d="M131.69 48L135 50.7676L133.924 53L130 51.8838L131.69 48Z" fill="#C87411"/>
<path opacity="0.2" d="M97 181L96.8083 186H93L93.1917 181H97Z" fill="black"/>
<path opacity="0.2" d="M66.4039 177L70 177.43L68.601 182L65 181.57L66.4039 177Z" fill="black"/>
<path d="M86.1879 40.6525C87.2053 44.3693 87.6091 46.594 89.9562 48.1335C93.477 50.4584 97.8591 47.7908 97.9936 43.8579C98.1175 40.3151 96.4378 34.8375 92.368 34.0889C91.4725 33.9258 90.5493 33.9878 89.6849 34.2693C88.8205 34.5507 88.0432 35.0424 87.4257 35.6982C86.8082 36.354 86.3707 37.1525 86.1543 38.019C85.9378 38.8855 85.9493 39.7916 86.1879 40.6525Z" fill="#C87411"/>
<path d="M95.6082 29.6129C95.5843 29.8711 95.5046 30.1204 95.375 30.3426C95.2454 30.5649 95.0692 30.7543 94.8593 30.897C94.6853 28.8838 93.91 26.9468 92.175 26C92.4598 26.8543 91.6476 28.2091 90.4558 29.5911C90.3232 29.0851 90.0909 28.6127 89.7733 28.2036C89.4557 27.7944 89.0596 27.4573 88.61 27.2134C87.8189 30.3747 85.2875 30.897 83.2782 32.8449C82.8433 33.2861 82.5469 33.8519 82.4275 34.4689C82.3081 35.086 82.3711 35.7258 82.6085 36.3055C82.0811 36.0606 81.4535 36.1205 81 37.3393C81.4352 37.0553 81.9357 36.8957 82.4503 36.8768C82.0917 37.225 81.8121 37.829 82.0178 39.1893C82.3764 41.4909 86.9593 48.3304 89.8546 47.9876C93.0188 47.6121 93.5989 43.8305 93.6727 40.419L93.794 40.3537C95.9879 39.1512 98.6986 32.7198 95.6082 29.6129Z" fill="#263238"/>
<path d="M92.1964 40.8904C92.6325 41.7152 93.3708 42.3938 94.2977 42.8218C95.5283 43.3722 96.2133 42.5666 95.9405 41.5109C95.6909 40.5552 94.7795 39.1242 93.4851 39.0091C92.1906 38.894 91.6856 39.8897 92.1964 40.8904Z" fill="#C87411"/>
<path d="M95 89C95 89 90.5052 119.252 88.0369 130.589C85.3421 142.983 71.1302 181 71.1302 181L64 179.691C64 179.691 74.6172 144.002 76.1586 131.732C77.8347 118.395 81.3324 89.0216 81.3324 89.0216L95 89Z" fill="#E65F2B"/>
<path opacity="0.2" d="M92.7427 100.042C87.1575 101.047 87.7485 120.166 88.4206 130C90.0312 123.049 92.3893 109.673 94 100.18C93.6103 100.004 93.1668 99.9552 92.7427 100.042Z" fill="black"/>
<path d="M102.725 89C102.725 89 103.256 118.494 102.842 130.521C102.401 143.032 98.0578 184 98.0578 184H91.4558C91.4558 184 91.2113 143.762 90.9242 131.477C90.6053 118.08 89 89 89 89H102.725Z" fill="#E65F2B"/>
<path opacity="0.2" d="M97.3052 180L97 179.968C98.2379 168.62 101.166 141.161 101.522 131.318C101.901 121.233 101.556 98.6981 101.443 92.0323L101.748 92C101.861 98.6659 102.206 121.211 101.827 131.312C101.471 141.171 98.5431 168.647 97.3052 180Z" fill="black"/>
<path d="M72.9994 179.328C73.0308 179.328 71.7953 182 71.7953 182L64 180.484L64.5811 178L72.9994 179.328Z" fill="#E65F2B"/>
<path opacity="0.5" d="M72.9994 179.328C73.0308 179.328 71.7953 182 71.7953 182L64 180.484L64.5811 178L72.9994 179.328Z" fill="black"/>
<path d="M99.9981 182C100.031 182 99.6105 185 99.6105 185H91.227L91 182.325L99.9981 182Z" fill="#E65F2B"/>
<path opacity="0.5" d="M99.9981 182C100.031 182 99.6105 185 99.6105 185H91.227L91 182.325L99.9981 182Z" fill="black"/>
</svg>
